<?xml version="1.0" encoding="UTF-8"?>
<svg version="1.1" xmlns="http://www.w3.org/2000/svg" width="1408" height="768">
<path d="M0 0 C464.64 0 929.28 0 1408 0 C1408 253.44 1408 506.88 1408 768 C943.36 768 478.72 768 0 768 C0 514.56 0 261.12 0 0 Z " fill="#0E111C" transform="translate(0,0)"/>
<path d="M0 0 C1.95897217 0.01305176 1.95897217 0.01305176 3.95751953 0.02636719 C14.64345897 0.18693925 24.9248826 1.15838081 35.375 3.375 C36.03999512 3.51421875 36.70499023 3.6534375 37.39013672 3.796875 C42.10493589 4.81705694 46.73587286 6.06309895 51.375 7.375 C52.19742188 7.6013916 53.01984375 7.8277832 53.8671875 8.06103516 C75.60700601 14.09765998 96.15551484 22.92736886 116.69927979 32.1484375 C118.12712317 32.78931876 119.55592789 33.42806341 120.98577881 34.06445312 C146.21624362 45.3281469 162.90734125 60.58748653 173.375 86.375 C178.64125757 100.62680956 179.69881626 114.35352332 179.375 129.375 C174.38618068 128.81245966 170.35022062 127.16319113 165.90625 124.9453125 C165.19748718 124.59919922 164.48872437 124.25308594 163.75848389 123.89648438 C161.46024413 122.77177785 159.16764202 121.63606737 156.875 120.5 C155.28253034 119.71796834 153.68975483 118.9365592 152.09667969 118.15576172 C142.71156024 113.5487369 133.35430019 108.8857362 124.01489258 104.18676758 C116.96912462 100.64884425 109.87034961 97.23012437 102.74658203 93.85229492 C96.96275824 91.10591834 91.204696 88.31330293 85.46484375 85.4765625 C45.14104933 65.24198637 45.14104933 65.24198637 1.125 58.125 C0.09487793 58.11573486 -0.93524414 58.10646973 -1.99658203 58.09692383 C-13.42902541 58.14407364 -23.96501536 60.85099937 -32.9609375 68.3125 C-41.36075592 77.06633375 -45.78750908 88.14831065 -45.72265625 100.2109375 C-45.71943359 101.27441406 -45.71621094 102.33789062 -45.71289062 103.43359375 C-45.70451172 104.52800781 -45.69613281 105.62242187 -45.6875 106.75 C-45.68298828 107.86761719 -45.67847656 108.98523438 -45.67382812 110.13671875 C-45.66209244 112.88286804 -45.64567363 115.62890586 -45.625 118.375 C-44.305 119.035 -42.985 119.695 -41.625 120.375 C-41.398125 119.67375 -41.17125 118.9725 -40.9375 118.25 C-39.34625168 114.76440845 -37.07147128 112.31076554 -34.625 109.375 C-33.3200516 106.6625382 -33.3200516 106.6625382 -32.625 104.375 C-29.57100579 105.05608836 -26.82045586 106.05606559 -23.94384766 107.2824707 C-23.00977081 107.67907394 -22.07569397 108.07567719 -21.11331177 108.48429871 C-19.59155838 109.13595757 -19.59155838 109.13595757 -18.0390625 109.80078125 C-16.97082245 110.25564407 -15.9025824 110.7105069 -14.80197144 111.17915344 C-11.28327087 112.67873113 -7.76656831 114.18292958 -4.25 115.6875 C-2.4202493 116.46862326 -0.59049821 117.24974563 1.23932266 118.0307045 C22.14183155 126.95360174 42.99349895 135.99237706 63.82347107 145.08323669 C70.49440557 147.99385954 77.17281392 150.88685042 83.85449219 153.77270508 C89.69888196 156.29709287 95.53719919 158.83541984 101.375 161.375 C102.61083422 161.91130852 103.84667419 162.44760381 105.08251953 162.98388672 C108.76738323 164.58428745 112.44638786 166.19778156 116.125 167.8125 C117.21449951 168.28494141 118.30399902 168.75738281 119.42651367 169.24414062 C146.34530894 181.12286728 163.5098176 200.61434726 174.65625 227.4609375 C182.17273873 248.24516769 182.93004229 272.05080541 177.375 293.375 C177.20871094 294.02339844 177.04242187 294.67179687 176.87109375 295.33984375 C172.88108411 310.50188037 166.19568358 324.11977722 156.375 336.375 C155.64023437 337.33792969 155.64023437 337.33792969 154.890625 338.3203125 C149.76427772 344.74264645 143.1869311 350.63177286 135.375 353.375 C135.375 354.035 135.375 354.695 135.375 355.375 C124.77698932 361.23507649 113.5104686 365.55225637 101.375 366.375 C100.715 366.705 100.055 367.035 99.375 367.375 C74.99364592 369.30700789 50.64536271 365.39876493 27.375 358.375 C26.49924316 358.11203125 25.62348633 357.8490625 24.72119141 357.578125 C4.94368009 351.53489368 -13.89246623 343.09864623 -32.75 334.6875 C-33.92240234 334.16526855 -35.09480469 333.64303711 -36.30273438 333.10498047 C-42.29912686 330.40762076 -48.25304719 327.6335259 -54.15234375 324.73046875 C-55.26343506 324.18414795 -56.37452637 323.63782715 -57.51928711 323.07495117 C-62.39344522 320.40701918 -66.5058421 317.07778092 -70.625 313.375 C-71.54152344 312.59769531 -71.54152344 312.59769531 -72.4765625 311.8046875 C-81.95206644 303.19452639 -87.63598175 291.31039589 -91.625 279.375 C-91.90859375 278.60929687 -92.1921875 277.84359375 -92.484375 277.0546875 C-96.47482005 266.01988536 -98.15017903 255.08454733 -97.625 243.375 C-91.22082576 244.47717165 -85.34267536 247.02725371 -79.3125 249.375 C-78.30851166 249.76431702 -78.30851166 249.76431702 -77.28424072 250.16149902 C-53.6322157 259.35416087 -30.39201775 269.56730471 -7.11425781 279.65991211 C45.31716414 306.39141062 45.31716414 306.39141062 101.52734375 307.2265625 C104.42752234 305.88990514 106.11601778 305.03191239 107.31103516 302.00073242 C109.16555307 294.4663647 109.83550099 287.43483941 109.75 279.6875 C109.76740234 278.09325195 109.76740234 278.09325195 109.78515625 276.46679688 C109.76333551 270.57156076 109.20667462 265.69394106 106.98754883 260.20996094 C106.14889701 257.69768233 106.5009852 255.83813261 107.375 253.375 C106.52566895 253.11178955 105.67633789 252.8485791 104.80126953 252.57739258 C101.23087455 251.32442156 97.94942195 249.8070363 94.5546875 248.13671875 C93.90699402 247.81982086 93.25930054 247.50292297 92.59197998 247.17642212 C91.20099882 246.49576746 89.81076043 245.81359316 88.42120361 245.1300354 C84.70721483 243.3039448 80.98681463 241.49105004 77.265625 239.6796875 C76.51266144 239.31311539 75.75969788 238.94654327 74.98391724 238.56886292 C68.02767205 235.19071526 61.02382196 231.92298508 54 228.6875 C44.91601809 224.50098601 35.87704245 220.2349766 26.875 215.875 C14.10144562 209.69047232 1.2431416 203.70476884 -11.64111328 197.75537109 C-15.53719188 195.95301237 -19.42554638 194.13443021 -23.3125 192.3125 C-26.92079625 190.62394947 -30.53445833 188.96413907 -34.1875 187.375 C-39.35599282 185.11070791 -44.36342103 182.51922574 -49.390625 179.9609375 C-52.10464456 178.63015013 -54.80126376 177.44717053 -57.625 176.375 C-57.625 175.715 -57.625 175.055 -57.625 174.375 C-58.71167969 174.25511719 -58.71167969 174.25511719 -59.8203125 174.1328125 C-65.16540909 172.6885942 -68.71475512 168.12514037 -72.625 164.375 C-73.24761719 163.82714844 -73.87023437 163.27929688 -74.51171875 162.71484375 C-78.51964181 159.06193485 -81.44162431 154.89933901 -84.375 150.375 C-84.94069702 149.50258667 -84.94069702 149.50258667 -85.51782227 148.61254883 C-92.37975184 137.68963388 -92.37975184 137.68963388 -91.125 131.625 C-90.42315847 126.65984447 -91.37355971 123.18696011 -92.85546875 118.45703125 C-94.55380676 111.65505821 -94.625 104.36222925 -94.625 97.375 C-96.275 97.045 -97.925 96.715 -99.625 96.375 C-99.625 94.395 -99.625 92.415 -99.625 90.375 C-98.965 90.375 -98.305 90.375 -97.625 90.375 C-97.70878906 89.78332031 -97.79257812 89.19164062 -97.87890625 88.58203125 C-98.43793944 84.24421672 -98.82725747 80.63754923 -97.625 76.375 C-97.26502477 75.02236582 -96.91135353 73.66804513 -96.5625 72.3125 C-96.38589844 71.66152344 -96.20929687 71.01054687 -96.02734375 70.33984375 C-95.49126089 68.05615486 -95.49126089 68.05615486 -95.625 64.375 C-96.945 65.695 -98.265 67.015 -99.625 68.375 C-96.72122819 60.48926676 -91.89045431 53.56764404 -86.2734375 47.37109375 C-84.53120504 45.26142364 -83.02117233 43.04191362 -81.50830078 40.76416016 C-66.70907676 18.54300732 -44.21708456 6.33623479 -18.3984375 0.98583984 C-12.25631809 -0.00843958 -6.21005707 -0.06967579 0 0 Z " fill="#432085" transform="translate(673.625,177.625)"/>
<path d="M0 0 C1.95897217 0.01305176 1.95897217 0.01305176 3.95751953 0.02636719 C14.64345897 0.18693925 24.9248826 1.15838081 35.375 3.375 C36.03999512 3.51421875 36.70499023 3.6534375 37.39013672 3.796875 C42.10493589 4.81705694 46.73587286 6.06309895 51.375 7.375 C52.19742188 7.6013916 53.01984375 7.8277832 53.8671875 8.06103516 C75.60700601 14.09765998 96.15551484 22.92736886 116.69927979 32.1484375 C118.12712317 32.78931876 119.55592789 33.42806341 120.98577881 34.06445312 C146.21624362 45.3281469 162.90734125 60.58748653 173.375 86.375 C178.64125757 100.62680956 179.69881626 114.35352332 179.375 129.375 C174.38618068 128.81245966 170.35022062 127.16319113 165.90625 124.9453125 C165.19748718 124.59919922 164.48872437 124.25308594 163.75848389 123.89648438 C161.46024413 122.77177785 159.16764202 121.63606737 156.875 120.5 C155.28253034 119.71796834 153.68975483 118.9365592 152.09667969 118.15576172 C142.71156024 113.5487369 133.35430019 108.8857362 124.01489258 104.18676758 C116.96912462 100.64884425 109.87034961 97.23012437 102.74658203 93.85229492 C96.96275824 91.10591834 91.204696 88.31330293 85.46484375 85.4765625 C45.14104933 65.24198637 45.14104933 65.24198637 1.125 58.125 C0.09487793 58.11573486 -0.93524414 58.10646973 -1.99658203 58.09692383 C-13.42902541 58.14407364 -23.96501536 60.85099937 -32.9609375 68.3125 C-43.38014922 79.17083558 -45.80369736 91.61480243 -45.875 106.0625 C-45.895625 107.08794922 -45.91625 108.11339844 -45.9375 109.16992188 C-45.98889978 119.34065291 -43.93898229 127.93487813 -38.75 136.6875 C-38.09257813 137.81800781 -37.43515625 138.94851563 -36.7578125 140.11328125 C-27.81157717 153.79479498 -14.62238856 160.19148484 -0.30859375 167.08984375 C5.83448672 170.06592916 11.86248235 173.24023489 17.89447021 176.43312073 C25.96318362 180.6995018 34.08999427 184.84788836 42.22207642 188.99179077 C48.88615947 192.39275232 55.53784833 195.81793456 62.1875 199.24700928 C63.56870478 199.95923153 64.95017935 200.67093107 66.33203125 201.38189697 C88.54185022 212.81655857 88.54185022 212.81655857 96.375 221.375 C97.02210938 222.02855469 97.66921875 222.68210937 98.3359375 223.35546875 C103.1398033 228.43297247 108.05308509 234.87476097 108.56640625 242.05078125 C108.375 244.375 108.375 244.375 107.375 246.375 C106.715 246.375 106.055 246.375 105.375 246.375 C104.90191406 245.33601562 104.42882812 244.29703125 103.94140625 243.2265625 C93.96422581 221.92434873 78.59408917 213.776526 58.375 203.5625 C55.04058007 201.87062428 51.70773949 200.17565172 48.375 198.48046875 C47.55393265 198.06367859 46.7328653 197.64688843 45.88691711 197.21746826 C39.12176737 193.77598979 32.40119375 190.25335186 25.7010498 186.6870575 C20.02404447 183.67564576 14.28763912 180.8994976 8.375 178.375 C8.375 178.705 8.375 179.035 8.375 179.375 C-26.76886859 186.65087904 -26.76886859 186.65087904 -40.625 179.375 C-42.09418124 178.67135589 -43.56433158 177.96973359 -45.03515625 177.26953125 C-55.42658862 172.19770773 -63.64773868 166.77481289 -71.625 158.375 C-72.59759766 157.446875 -72.59759766 157.446875 -73.58984375 156.5 C-84.64000071 145.27444372 -91.32373512 127.63601974 -93.625 112.375 C-93.83125 111.34375 -94.0375 110.3125 -94.25 109.25 C-94.76714544 105.28521826 -94.70484241 101.36712038 -94.625 97.375 C-96.275 97.045 -97.925 96.715 -99.625 96.375 C-99.625 94.395 -99.625 92.415 -99.625 90.375 C-98.965 90.375 -98.305 90.375 -97.625 90.375 C-97.70878906 89.78332031 -97.79257812 89.19164062 -97.87890625 88.58203125 C-98.43793944 84.24421672 -98.82725747 80.63754923 -97.625 76.375 C-97.26502477 75.02236582 -96.91135353 73.66804513 -96.5625 72.3125 C-96.38589844 71.66152344 -96.20929687 71.01054687 -96.02734375 70.33984375 C-95.49126089 68.05615486 -95.49126089 68.05615486 -95.625 64.375 C-96.945 65.695 -98.265 67.015 -99.625 68.375 C-96.72122819 60.48926676 -91.89045431 53.56764404 -86.2734375 47.37109375 C-84.53120504 45.26142364 -83.02117233 43.04191362 -81.50830078 40.76416016 C-66.70907676 18.54300732 -44.21708456 6.33623479 -18.3984375 0.98583984 C-12.25631809 -0.00843958 -6.21005707 -0.06967579 0 0 Z " fill="#C181DC" transform="translate(673.625,177.625)"/>
<path d="M0 0 C0.99 0.33 1.98 0.66 3 1 C2.34 1 1.68 1 1 1 C1.21823571 12.18954002 4.07791705 22.0420103 11 31 C11.44472656 31.61101562 11.88945313 32.22203125 12.34765625 32.8515625 C20.01477645 42.60971548 32.16384841 47.81222424 43.25 52.75 C45.69841475 53.8634534 48.14530015 54.97968646 50.58984375 56.1015625 C51.24301071 56.40097748 51.89617767 56.70039246 52.56913757 57.00888062 C63.52494568 62.0568072 74.32631349 67.43361837 85.15551758 72.74584961 C86.89267053 73.597637 88.62989272 74.44928318 90.3671875 75.30078125 C91.62667458 75.91816414 91.62667458 75.91816414 92.91160583 76.54801941 C97.71740435 78.89880531 102.5375875 81.21204111 107.3828125 83.48046875 C108.43106201 83.97208496 109.47931152 84.46370117 110.55932617 84.97021484 C112.37857285 85.81865137 114.20125304 86.65979786 116.02856445 87.49072266 C136.06030704 96.84063154 148.61432305 111.77259739 156.25390625 132.3828125 C161.64574694 149.47889274 161.10162475 169.84722942 153.03662109 185.92041016 C149.96185739 191.5851135 145.85815171 195.83586996 141 200 C139.92820401 196.78461204 140.04366196 196.18661482 140.91796875 193.09375 C142.32547832 187.23130071 142.33047708 181.50434315 142.3125 175.5 C142.32861328 174.42363281 142.34472656 173.34726562 142.36132812 172.23828125 C142.36495549 166.28214431 141.86666064 161.36849473 139.61474609 155.82836914 C138.77111897 153.31926527 139.12673299 151.4610252 140 149 C139.15066895 148.73678955 138.30133789 148.4735791 137.42626953 148.20239258 C133.85587455 146.94942156 130.57442195 145.4320363 127.1796875 143.76171875 C126.53199402 143.44482086 125.88430054 143.12792297 125.21697998 142.80142212 C123.82599882 142.12076746 122.43576043 141.43859316 121.04620361 140.7550354 C117.33221483 138.9289448 113.61181463 137.11605004 109.890625 135.3046875 C109.13766144 134.93811539 108.38469788 134.57154327 107.60891724 134.19386292 C100.65267205 130.81571526 93.64882196 127.54798508 86.625 124.3125 C77.54101809 120.12598601 68.50204245 115.8599766 59.5 111.5 C46.72644562 105.31547232 33.8681416 99.32976884 20.98388672 93.38037109 C17.08780812 91.57801237 13.19945362 89.75943021 9.3125 87.9375 C5.70420375 86.24894947 2.09054167 84.58913907 -1.5625 83 C-6.73099282 80.73570791 -11.73842103 78.14422574 -16.765625 75.5859375 C-19.47964456 74.25515013 -22.17626376 73.07217053 -25 72 C-25 71.34 -25 70.68 -25 70 C-26.08667969 69.88011719 -26.08667969 69.88011719 -27.1953125 69.7578125 C-32.54040909 68.3135942 -36.08975512 63.75014037 -40 60 C-40.62261719 59.45214844 -41.24523437 58.90429688 -41.88671875 58.33984375 C-45.89464181 54.68693485 -48.81662431 50.52433901 -51.75 46 C-52.12713135 45.41839111 -52.5042627 44.83678223 -52.89282227 44.23754883 C-59.12616144 34.31523282 -59.12616144 34.31523282 -58.85546875 29.34765625 C-58.63503906 28.59355469 -58.41460938 27.83945312 -58.1875 27.0625 C-57.97480469 26.29035156 -57.76210938 25.51820313 -57.54296875 24.72265625 C-57.36378906 24.15417969 -57.18460938 23.58570313 -57 23 C-55.47340087 25.2898987 -54.40932154 27.17886384 -53.3359375 29.66015625 C-49.46899688 38.38165889 -45.57227099 45.94998043 -39 53 C-38.37480469 53.70382812 -37.74960937 54.40765625 -37.10546875 55.1328125 C-28.46741114 64.3866176 -17.13746917 69.65446807 -5.94140625 75.1796875 C-5.27826416 75.50694824 -4.61512207 75.83420898 -3.93188477 76.17138672 C7.70576406 81.1629424 24.07255192 77.88174315 36 75 C37.42058716 74.40082764 37.42058716 74.40082764 38.86987305 73.78955078 C42.92608229 72.76640277 44.37445611 73.59869756 48.04296875 75.515625 C49.18918701 76.102229 50.33540527 76.68883301 51.51635742 77.29321289 C52.74030865 77.94503037 53.96401754 78.59730307 55.1875 79.25 C56.45654029 79.90855275 57.72648797 80.56535974 58.99731445 81.22045898 C62.67715538 83.12413492 66.33875651 85.06080847 70 87 C71.7284783 87.90366165 73.45755019 88.80618983 75.1875 89.70703125 C78.17572676 91.26705906 81.15471463 92.84308522 84.12890625 94.4296875 C87.86529611 96.41580312 91.62868446 98.34348453 95.40234375 100.2578125 C96.51585205 100.8262085 97.62936035 101.39460449 98.77661133 101.98022461 C100.9431982 103.08492326 103.11339807 104.18257642 105.2878418 105.27172852 C119.8198651 112.71147863 130.50131158 122.16284451 136.90625 137.41015625 C137.76038163 139.88581429 137.76038163 139.88581429 139 141 C139.66 140.67 140.32 140.34 141 140 C137.4739318 127.19480497 130.33208064 116.32088498 118.99584961 109.08154297 C117.91311768 108.47455566 116.83038574 107.86756836 115.71484375 107.2421875 C114.81154579 106.73531403 114.81154579 106.73531403 113.88999939 106.21820068 C107.11258627 102.44868618 100.21410262 98.91043408 93.30419922 95.39160156 C90.20849369 93.8150911 87.11653357 92.231297 84.02438354 90.64782715 C82.47794488 89.8559062 80.93133627 89.064317 79.384552 88.27307129 C72.53216232 84.76624637 65.70580455 81.21099078 58.89233398 77.62915039 C53.77650362 74.9471495 48.64213821 72.3056373 43.48651123 69.70114136 C40.31901797 68.10047427 37.15504191 66.49290897 33.9909668 64.88549805 C32.43529426 64.09778933 30.87788174 63.3135059 29.31860352 62.53295898 C18.70679428 57.21958369 9.16427414 51.82624232 1 43 C0.53078125 42.51273437 0.0615625 42.02546875 -0.421875 41.5234375 C-6.0944867 35.35374127 -11.18898061 27.25019945 -13 19 C-12.625 16.625 -12.625 16.625 -12 15 C-11.01 15.33 -10.02 15.66 -9 16 C-8.773125 15.29875 -8.54625 14.5975 -8.3125 13.875 C-6.72125168 10.38940845 -4.44647128 7.93576554 -2 5 C-0.6950516 2.2875382 -0.6950516 2.2875382 0 0 Z " fill="#261043" transform="translate(641,282)"/>
<path d="M0 0 C4.01689739 0.65578207 7.46964162 1.90316042 11.21484375 3.484375 C12.11289986 3.86155418 12.11289986 3.86155418 13.02909851 4.24635315 C15.00062956 5.07610329 16.96910328 5.91284435 18.9375 6.75 C20.33437488 7.3403193 21.73134926 7.93040322 23.12841797 8.52026367 C35.44701934 13.73053948 47.72061491 19.04479832 59.98384094 24.38388062 C67.35836661 27.59354683 74.74159241 30.78305882 82.12451172 33.97335815 C86.0599091 35.6741637 89.99475591 37.37624218 93.9296875 39.078125 C98.99209566 41.26757168 104.05503041 43.45578836 109.11889648 45.64186096 C117.08508906 49.08122449 125.04443621 52.5361098 133 56 C134.24899354 56.54222381 135.49801734 57.08437796 136.74707031 57.62646484 C140.41869218 59.22113881 144.08455696 60.82867424 147.75 62.4375 C148.83877441 62.90961914 149.92754883 63.38173828 151.04931641 63.86816406 C177.96908749 75.74738126 195.13432672 95.23816496 206.28125 122.0859375 C213.79773873 142.87016769 214.55504229 166.67580541 209 188 C208.83371094 188.64839844 208.66742187 189.29679688 208.49609375 189.96484375 C204.50608411 205.12688037 197.82068358 218.74477722 188 231 C187.51015625 231.64195312 187.0203125 232.28390625 186.515625 232.9453125 C181.38927772 239.36764645 174.8119311 245.25677286 167 248 C167 248.66 167 249.32 167 250 C156.40198932 255.86007649 145.1354686 260.17725637 133 261 C132.34 261.33 131.68 261.66 131 262 C106.61864592 263.93200789 82.27036271 260.02376493 59 253 C58.12424316 252.73703125 57.24848633 252.4740625 56.34619141 252.203125 C36.56868009 246.15989368 17.73253377 237.72364623 -1.125 229.3125 C-2.29740234 228.79026855 -3.46980469 228.26803711 -4.67773438 227.72998047 C-10.67412686 225.03262076 -16.62804719 222.2585259 -22.52734375 219.35546875 C-23.63843506 218.80914795 -24.74952637 218.26282715 -25.89428711 217.69995117 C-30.76844522 215.03201918 -34.8808421 211.70278092 -39 208 C-39.61101563 207.48179687 -40.22203125 206.96359375 -40.8515625 206.4296875 C-50.32706644 197.81952639 -56.01098175 185.93539589 -60 174 C-60.28359375 173.23429688 -60.5671875 172.46859375 -60.859375 171.6796875 C-64.84982005 160.64488536 -66.52517903 149.70954733 -66 138 C-59.59582576 139.10217165 -53.71767536 141.65225371 -47.6875 144 C-46.68351166 144.38931702 -46.68351166 144.38931702 -45.65924072 144.78649902 C-22.0072157 153.97916087 1.23298225 164.19230471 24.51074219 174.28491211 C76.85049888 201.15617249 76.85049888 201.15617249 132.90234375 202.03515625 C143.88783027 196.61401299 150.89658546 187.34850585 155 176 C155.83279032 172.99848488 156.44631297 170.07044626 157 167 C158.32 167 159.64 167 161 167 C162.11489097 176.5880623 157.13673307 186.37031452 151.66015625 194.00390625 C142.70012094 204.77703106 131.46552138 208.96590682 117.71875 210.32421875 C90.27431035 211.25399533 64.05149076 197.38099871 39.57373047 186.57666016 C34.43041831 184.30753118 29.27913512 182.0569197 24.125 179.8125 C22.75299438 179.21465698 22.75299438 179.21465698 21.35327148 178.60473633 C6.21907975 172.03181346 -9.05625187 165.78897353 -24.31640625 159.515625 C-33.17282149 155.87162806 -41.99361389 152.15680498 -50.7734375 148.33203125 C-53.81559405 147.07612885 -56.86531155 145.99912275 -60 145 C-59.01540337 155.09211546 -57.4418362 164.39715452 -54 174 C-53.78690186 174.62253662 -53.57380371 175.24507324 -53.35424805 175.88647461 C-51.61948684 180.78689311 -49.4033173 185.13687262 -46.6875 189.5625 C-46.28797119 190.21726318 -45.88844238 190.87202637 -45.47680664 191.54663086 C-32.37528602 212.67649711 -7.96394878 220.69562735 14 230 C15.6694165 230.70890381 15.6694165 230.70890381 17.37255859 231.43212891 C38.05463838 240.16562204 59.01445046 248.22454485 81 253 C82.19753906 253.29777344 83.39507813 253.59554687 84.62890625 253.90234375 C112.66952332 260.04241833 143.78842874 257.66060994 168.3125 242.25 C190.42764888 226.60757762 200.58252525 203.07427732 205.54858398 177.13452148 C209.50502361 149.66198046 204.22747386 120.75007486 187.66308594 98.17822266 C173.69330764 80.02711209 155.25095307 70.91127739 134.47558594 62.50024414 C129.44559275 60.46336964 124.53881929 58.34603902 119.71362305 55.86181641 C117.40405893 54.70028893 115.03530655 53.74392761 112.625 52.8125 C108.13888889 51.06944444 108.13888889 51.06944444 106 50 C100.40314262 49.36154368 96.94317086 51.21998905 92.1875 53.8125 C77.0623024 61.67787879 77.0623024 61.67787879 68 60 C64.76538086 58.71240234 64.76538086 58.71240234 61.46484375 57.0859375 C60.86426651 56.79320953 60.26368927 56.50048157 59.64491272 56.19888306 C57.73784529 55.26662817 55.83772434 54.32111144 53.9375 53.375 C52.69118706 52.76344204 51.44444454 52.15275873 50.19726562 51.54296875 C47.70536439 50.32243614 45.21882414 49.09183784 42.73583984 47.85327148 C40.22527429 46.60193911 37.7047701 45.37489089 35.17431641 44.16430664 C23.13935781 38.36531766 12.33985085 30.78903781 7 18 C6.1360907 14.83233257 5.41078885 11.70124745 4.8359375 8.46875 C4.23255753 5.84355186 4.23255753 5.84355186 1.9140625 4.65625 C1.28242187 4.4396875 0.65078125 4.223125 0 4 C0 2.68 0 1.36 0 0 Z " fill="#9860C0" transform="translate(642,283)"/>
<path d="M0 0 C2.88038345 1.37951664 5.76586664 2.74823009 8.65136719 4.11700439 C18.65332978 8.86771497 28.60406748 13.70732529 38.49023438 18.69415283 C43.90495894 21.42424786 49.32383766 24.14604792 54.74511719 26.86309814 C55.34995941 27.1662796 55.95480164 27.46946106 56.57797241 27.78182983 C65.78613052 32.39338042 75.04167147 36.8905737 84.37011719 41.25372314 C86.91056572 42.44595118 89.433605 43.65006067 91.93261719 44.92559814 C91.25199219 45.60622314 90.57136719 46.28684814 89.87011719 46.98809814 C89.18369141 47.67645752 89.18369141 47.67645752 88.48339844 48.37872314 C87.42345056 49.43600113 86.35807486 50.48785809 85.28808594 51.53497314 C80.94191514 55.81246856 76.8936906 60.29029947 72.93261719 64.92559814 C68.46459137 63.53799145 64.36395416 61.78531522 60.16308594 59.73028564 C59.21261131 59.26759026 59.21261131 59.26759026 58.24293518 58.79554749 C56.20036348 57.8005381 54.16024495 56.80060744 52.12011719 55.80059814 C49.30712758 54.42783486 46.49296781 53.05747995 43.67871094 51.68731689 C42.99471222 51.35389786 42.3107135 51.02047882 41.60598755 50.67695618 C36.65636753 48.26750956 31.68058296 45.92061543 26.68261719 43.61309814 C19.86549303 40.45396414 13.22470731 36.98911959 6.61132812 33.42437744 C2.30797029 31.11659633 -2.0234872 29.02610784 -6.5 27.07794189 C-10.85222626 25.12448926 -15.12077923 22.99756571 -19.40527344 20.90093994 C-23.27711955 19.00631002 -27.15817101 17.13132109 -31.04394531 15.26544189 C-32.21006348 14.70461914 -33.37618164 14.14379639 -34.57763672 13.565979 C-45.3354787 8.50917613 -56.37755127 4.76804647 -67.69238281 1.17559814 C-68.90861328 0.78589844 -70.12484375 0.39619873 -71.37792969 -0.00531006 C-88.40463315 -5.27828171 -108.59329336 -8.71783465 -125.56738281 -1.32440186 C-129.22673289 0.65524655 -130.63595674 2.98917643 -132.06738281 6.92559814 C-133.34064176 3.97891316 -133.04491965 2.86445264 -131.91503906 -0.21112061 C-125.23024409 -13.50757275 -118.27315772 -21.53711604 -104.06738281 -27.07440186 C-67.34759892 -36.13581194 -31.80212781 -15.25837349 0 0 Z " fill="#46186A" transform="translate(761.0673828125,263.07440185546875)"/>
<path d="M0 0 C1.52659913 2.2898987 2.59067846 4.17886384 3.6640625 6.66015625 C7.53100312 15.38165889 11.42772901 22.94998043 18 30 C18.93779297 31.05574219 18.93779297 31.05574219 19.89453125 32.1328125 C28.53258886 41.3866176 39.86253083 46.65446807 51.05859375 52.1796875 C51.72173584 52.50694824 52.38487793 52.83420898 53.06811523 53.17138672 C64.70576406 58.1629424 81.07255192 54.88174315 93 52 C93.94705811 51.60055176 94.89411621 51.20110352 95.86987305 50.78955078 C99.92608229 49.76640277 101.37445611 50.59869756 105.04296875 52.515625 C106.18918701 53.102229 107.33540527 53.68883301 108.51635742 54.29321289 C109.74030865 54.94503037 110.96401754 55.59730307 112.1875 56.25 C113.45654029 56.90855275 114.72648797 57.56535974 115.99731445 58.22045898 C119.67715538 60.12413492 123.33875651 62.06080847 127 64 C128.7284783 64.90366165 130.45755019 65.80618983 132.1875 66.70703125 C135.17572676 68.26705906 138.15471463 69.84308522 141.12890625 71.4296875 C144.86529611 73.41580312 148.62868446 75.34348453 152.40234375 77.2578125 C153.51585205 77.8262085 154.62936035 78.39460449 155.77661133 78.98022461 C157.9431982 80.08492326 160.11339807 81.18257642 162.2878418 82.27172852 C176.8198651 89.71147863 187.50131158 99.16284451 193.90625 114.41015625 C194.76038163 116.88581429 194.76038163 116.88581429 196 118 C196.66 117.67 197.32 117.34 198 117 C198.33 116.01 198.66 115.02 199 114 C200.00496852 117.01490557 200.10335303 119.04181692 200.0625 122.1875 C200.05347656 123.08855469 200.04445313 123.98960937 200.03515625 124.91796875 C200.01775391 125.94857422 200.01775391 125.94857422 200 127 C192.19503367 124.71100216 185.08358718 121.27348963 177.81988525 117.67959595 C174.14785441 115.86355035 170.4663823 114.06684602 166.78515625 112.26953125 C166.0414679 111.90605087 165.29777954 111.5425705 164.53155518 111.16807556 C157.60470187 107.79047395 150.6252582 104.53541828 143.625 101.3125 C134.54092642 97.1261901 125.50203826 92.85997457 116.5 88.5 C103.72644562 82.31547232 90.8681416 76.32976884 77.98388672 70.38037109 C74.08780812 68.57801237 70.19945362 66.75943021 66.3125 64.9375 C62.70420375 63.24894947 59.09054167 61.58913907 55.4375 60 C50.26900718 57.73570791 45.26157897 55.14422574 40.234375 52.5859375 C37.52035544 51.25515013 34.82373624 50.07217053 32 49 C32 48.34 32 47.68 32 47 C31.27554688 46.92007813 30.55109375 46.84015625 29.8046875 46.7578125 C24.45959091 45.3135942 20.91024488 40.75014037 17 37 C16.37738281 36.45214844 15.75476563 35.90429688 15.11328125 35.33984375 C11.10535819 31.68693485 8.18337569 27.52433901 5.25 23 C4.87286865 22.41839111 4.4957373 21.83678223 4.10717773 21.23754883 C-2.12616144 11.31523282 -2.12616144 11.31523282 -1.85546875 6.34765625 C-1.63503906 5.59355469 -1.41460938 4.83945312 -1.1875 4.0625 C-0.97480469 3.29035156 -0.76210938 2.51820313 -0.54296875 1.72265625 C-0.27419922 0.86994141 -0.27419922 0.86994141 0 0 Z " fill="#602392" transform="translate(584,305)"/>
<path d="M0 0 C1.95897217 0.01305176 1.95897217 0.01305176 3.95751953 0.02636719 C14.64345897 0.18693925 24.9248826 1.15838081 35.375 3.375 C36.03999512 3.51421875 36.70499023 3.6534375 37.39013672 3.796875 C42.10493589 4.81705694 46.73587286 6.06309895 51.375 7.375 C52.19742188 7.6013916 53.01984375 7.8277832 53.8671875 8.06103516 C75.60700601 14.09765998 96.15551484 22.92736886 116.69927979 32.1484375 C118.12712317 32.78931876 119.55592789 33.42806341 120.98577881 34.06445312 C136.79185402 41.12079522 157.1711252 51.38053087 164.375 68.375 C164.04296875 71.66796875 164.04296875 71.66796875 163.375 74.375 C160.1786077 71.35858475 157.67539274 68.13580206 155.125 64.5625 C146.25180175 52.50727731 134.21099593 45.29955275 120.6875 39.25 C119.6763916 38.79334961 118.6652832 38.33669922 117.62353516 37.86621094 C96.71013325 28.52880555 75.47886857 19.49027668 53.375 13.375 C52.50375488 13.13313965 51.63250977 12.8912793 50.73486328 12.64208984 C17.92871305 3.73970726 -20.36284478 1.64137056 -50.765625 19.0078125 C-55.78652091 22.01203893 -60.30849609 25.42568451 -64.625 29.375 C-65.25535156 29.93703125 -65.88570312 30.4990625 -66.53515625 31.078125 C-80.27414673 44.00183473 -89.06059174 63.92854985 -91.12890625 82.5390625 C-91.20512207 83.22274902 -91.28133789 83.90643555 -91.35986328 84.61083984 C-91.55130254 86.51369997 -91.69701058 88.42100038 -91.83984375 90.328125 C-92.625 93.375 -92.625 93.375 -95.19140625 95.296875 C-95.99449219 95.65265625 -96.79757812 96.0084375 -97.625 96.375 C-97.68380804 93.20841337 -97.71886406 90.04197007 -97.75 86.875 C-97.76675781 85.988125 -97.78351562 85.10125 -97.80078125 84.1875 C-97.84242366 78.52413279 -97.12989981 73.8258182 -95.625 68.375 C-95.625 67.055 -95.625 65.735 -95.625 64.375 C-96.945 65.695 -98.265 67.015 -99.625 68.375 C-96.72122819 60.48926676 -91.89045431 53.56764404 -86.2734375 47.37109375 C-84.53120504 45.26142364 -83.02117233 43.04191362 -81.50830078 40.76416016 C-66.70907676 18.54300732 -44.21708456 6.33623479 -18.3984375 0.98583984 C-12.25631809 -0.00843958 -6.21005707 -0.06967579 0 0 Z " fill="#EBCEF3" transform="translate(673.625,177.625)"/>
<path d="M0 0 C4.034768 3.66351331 6.61420796 7.39428285 9 12.3125 C9.3417627 13.01181641 9.68352539 13.71113281 10.03564453 14.43164062 C16.53355175 28.13274938 20.32091264 42.74206263 20 58 C15.22845132 56.53772886 10.81930741 54.57154168 6.35546875 52.3671875 C5.62741531 52.01165802 4.89936188 51.65612854 4.14924622 51.28982544 C1.82692474 50.1550644 -0.49290257 49.01531749 -2.8125 47.875 C-5.08359867 46.76169251 -7.35523835 45.64950526 -9.62741089 44.53839111 C-11.13633067 43.80047493 -12.64473563 43.06150508 -14.15261841 42.32147217 C-18.04722611 40.41603707 -21.95485167 38.54733558 -25.89208984 36.73144531 C-26.67790939 36.36802032 -27.46372894 36.00459534 -28.27336121 35.63015747 C-29.77722752 34.9374309 -31.28358413 34.25007859 -32.79267883 33.56881714 C-37.88992921 31.22014159 -37.88992921 31.22014159 -39 29 C-38.175 29.309375 -37.35 29.61875 -36.5 29.9375 C-31.82701102 30.02094623 -30.60945892 28.43470146 -27.33984375 25.296875 C-26.18162109 24.15992188 -26.18162109 24.15992188 -25 23 C-23.50592141 21.63921471 -22.01161144 20.27866428 -20.51147461 18.92456055 C-11.74032109 11.77789326 -11.74032109 11.77789326 -5 3 C-4.34 3 -3.68 3 -3 3 C-3 2.34 -3 1.68 -3 1 C-2.01 0.67 -1.02 0.34 0 0 Z " fill="#68269A" transform="translate(829,243)"/>
<path d="M0 0 C6.40417424 1.10217165 12.28232464 3.65225371 18.3125 6 C18.98182556 6.25954468 19.65115112 6.51908936 20.34075928 6.78649902 C43.9927843 15.97916087 67.23298225 26.19230471 90.51074219 36.28491211 C142.85049888 63.15617249 142.85049888 63.15617249 198.90234375 64.03515625 C209.88783027 58.61401299 216.89658546 49.34850585 221 38 C221.83279032 34.99848488 222.44631297 32.07044626 223 29 C224.32 29 225.64 29 227 29 C228.11489097 38.5880623 223.13673307 48.37031452 217.66015625 56.00390625 C208.70012094 66.77703106 197.46552138 70.96590682 183.71875 72.32421875 C156.27431035 73.25399533 130.05149076 59.38099871 105.57373047 48.57666016 C100.43041831 46.30753118 95.27913512 44.0569197 90.125 41.8125 C89.21032959 41.41393799 88.29565918 41.01537598 87.35327148 40.60473633 C72.21907975 34.03181346 56.94374813 27.78897353 41.68359375 21.515625 C32.82717851 17.87162806 24.00638611 14.15680498 15.2265625 10.33203125 C12.18440595 9.07612885 9.13468845 7.99912275 6 7 C6.86826491 15.23319432 7.78574441 23.05092949 10.390625 30.9453125 C11.22072524 33.74424024 11.43291619 36.11389204 11 39 C10.01 39.66 9.02 40.32 8 41 C1.96135098 28.21605155 -0.89633607 14.09239495 0 0 Z " fill="#C194E4" transform="translate(576,421)"/>
<path d="M0 0 C2.41015625 0.65625 2.41015625 0.65625 5 2 C5.93359375 4.46875 5.93359375 4.46875 6.4375 7.5 C8.97963332 19.35855486 15.81854087 27.77708805 25.859375 34.29296875 C32.32319242 38.35166972 39.11117972 41.49896248 46.0625 44.625 C48.47140641 45.71840433 50.87822724 46.81630328 53.28515625 47.9140625 C54.42823242 48.43105713 55.57130859 48.94805176 56.74902344 49.48071289 C59.72682667 50.87233722 62.61800487 52.3677403 65.51953125 53.91015625 C69.11283015 55.73124116 71.54800661 56.56965592 75.625 55.8125 C76.46289062 55.67457031 77.30078125 55.53664063 78.1640625 55.39453125 C78.76992188 55.26433594 79.37578125 55.13414062 80 55 C78.68 55.99 77.36 56.98 76 58 C76.93457031 58.46148437 77.86914062 58.92296875 78.83203125 59.3984375 C87.36367662 63.6301248 95.8016375 68.00579016 104.19921875 72.49755859 C108.4986694 74.77110388 112.75377777 76.78213263 117.3125 78.5 C135.60026877 85.75867961 148.26220238 101.10699313 156.8125 118.3125 C163.01785713 133.05022319 165.05139289 149.24687413 162 165 C160.35 164.34 158.7 163.68 157 163 C157.02094727 162.351521 157.04189453 161.70304199 157.06347656 161.03491211 C157.71333901 137.80644261 154.19228299 117.39131145 138.39453125 99.38671875 C126.11344358 87.14569988 108.98989107 80.43207097 93.54296875 73.11328125 C88.88787803 70.90538108 84.24642483 68.67140203 79.61328125 66.41796875 C78.97839279 66.10933899 78.34350433 65.80070923 77.68937683 65.48272705 C75.07298726 64.210707 72.45665248 62.93857628 69.84091187 61.66522217 C62.66821803 58.17635472 55.47982538 54.73516813 48.21875 51.43359375 C47.59087082 51.14701904 46.96299164 50.86044434 46.31608582 50.56518555 C43.36147292 49.21754083 40.40293093 47.88067324 37.43481445 46.56298828 C21.68913128 39.4148459 8.78706075 30.36879357 2 14 C1.566875 12.96875 1.13375 11.9375 0.6875 10.875 C-0.205722 7.13970799 -0.13227703 3.8360338 0 0 Z " fill="#7D44B4" transform="translate(642,287)"/>
<path d="M0 0 C4.01689739 0.65578207 7.46964162 1.90316042 11.21484375 3.484375 C11.81354782 3.73582779 12.41225189 3.98728058 13.02909851 4.24635315 C15.00062956 5.07610329 16.96910328 5.91284435 18.9375 6.75 C20.33437488 7.3403193 21.73134926 7.93040322 23.12841797 8.52026367 C35.44701934 13.73053948 47.72061491 19.04479832 59.98384094 24.38388062 C67.35836661 27.59354683 74.74159241 30.78305882 82.12451172 33.97335815 C86.0599091 35.6741637 89.99475591 37.37624218 93.9296875 39.078125 C98.99209566 41.26757168 104.05503041 43.45578836 109.11889648 45.64186096 C117.08508906 49.08122449 125.04443621 52.5361098 133 56 C134.24899354 56.54222381 135.49801734 57.08437796 136.74707031 57.62646484 C140.41869218 59.22113881 144.08455696 60.82867424 147.75 62.4375 C148.83877441 62.90961914 149.92754883 63.38173828 151.04931641 63.86816406 C163.79929608 69.4945038 174.45556386 76.73852941 184.6875 86.1875 C185.35136719 86.79980469 186.01523437 87.41210938 186.69921875 88.04296875 C188 90 188 90 187.70703125 92.73828125 C187.47371094 93.48464844 187.24039063 94.23101562 187 95 C183.76833219 93.61799087 182.08484623 92.13195092 179.9375 89.375 C168.36224769 75.81751632 150.59433988 69.02540588 134.47583008 62.50048828 C129.53556181 60.49970601 124.73425252 58.41318616 119.99780273 55.97119141 C116.9306572 54.48016062 113.75982973 53.27549514 110.5859375 52.03222656 C106.17006231 50.26954526 101.84270145 48.30940217 97.5 46.375 C85.78382468 41.19186986 74.02419939 36.11226087 62.25 31.0625 C61.34554138 30.67443176 60.44108276 30.28636353 59.50921631 29.88653564 C50.45132691 26.00302441 41.38790633 22.13585775 32.2734375 18.38671875 C31.60997314 18.11372452 30.94650879 17.84073029 30.26293945 17.5594635 C27.25578663 16.3242718 24.24574781 15.09679848 21.23144531 13.87915039 C13.97023432 10.9199126 6.96473366 7.60164198 0 4 C0 2.68 0 1.36 0 0 Z " fill="#D4A7EC" transform="translate(642,283)"/>
<path d="M0 0 C4.18143548 0.63731916 7.56690991 2.05688573 11.375 3.875 C16.55681852 6.3328149 16.55681852 6.3328149 21.8125 8.625 C24.88346258 9.94972896 27.84346499 11.40179224 30.8125 12.9375 C32.58024929 13.79612108 34.38037919 14.58787665 36.18847656 15.35791016 C39.88747637 16.93726511 43.53421759 18.62068714 47.171875 20.3359375 C47.84349167 20.65160172 48.51510834 20.96726593 49.20707703 21.29249573 C51.38872015 22.31858319 53.56941972 23.34665597 55.75 24.375 C56.50032501 24.72837433 57.25065002 25.08174866 58.02371216 25.4458313 C68.18355399 30.23136463 78.32260072 35.05768502 88.4375 39.9375 C90.06993652 40.72350586 90.06993652 40.72350586 91.73535156 41.52539062 C96.76043455 43.94663672 101.77878285 46.38013458 106.78515625 48.83984375 C108.52337174 49.6850311 110.26164881 50.5300918 112 51.375 C112.77786865 51.76292725 113.5557373 52.15085449 114.35717773 52.55053711 C118.52013452 54.737839 118.52013452 54.737839 123 54 C123.66 53.67 124.32 53.34 125 53 C125.33 52.01 125.66 51.02 126 50 C127.00496852 53.01490557 127.10335303 55.04181692 127.0625 58.1875 C127.05347656 59.08855469 127.04445313 59.98960937 127.03515625 60.91796875 C127.01775391 61.94857422 127.01775391 61.94857422 127 63 C119.19503367 60.71100216 112.08358718 57.27348963 104.81988525 53.67959595 C101.14785441 51.86355035 97.4663823 50.06684602 93.78515625 48.26953125 C93.0414679 47.90605087 92.29777954 47.5425705 91.53155518 47.16807556 C84.60470187 43.79047395 77.6252582 40.53541828 70.625 37.3125 C60.42889394 32.61372038 50.29822663 27.79513571 40.19580078 22.8984375 C30.46582096 18.19439785 20.66962073 13.64051289 10.84570312 9.13671875 C9.73130859 8.62367188 8.61691406 8.110625 7.46875 7.58203125 C6.48326172 7.13061768 5.49777344 6.6792041 4.48242188 6.21411133 C2 5 2 5 -1 3 C-0.67 2.01 -0.34 1.02 0 0 Z " fill="#854DB6" transform="translate(657,369)"/>
<path d="M0 0 C2 3 2 3 3.3515625 6.24609375 C4.97591389 10.12558292 7.07371207 13.55225845 9.375 17.0625 C9.74882813 17.64837891 10.12265625 18.23425781 10.5078125 18.83789062 C26.65373573 43.7479537 61.05156744 52.95017117 87.40576172 63.47216797 C88.48615723 63.9054541 89.56655273 64.33874023 90.6796875 64.78515625 C91.63601074 65.16551025 92.59233398 65.54586426 93.57763672 65.93774414 C96 67 96 67 99 69 C97.27954102 70.56079102 97.27954102 70.56079102 95 72 C87.36284833 71.38599704 79.43842392 66.69585157 72.5625 63.5625 C70.17608498 62.48370286 67.78935675 61.40559837 65.40234375 60.328125 C64.490896 59.9153405 64.490896 59.9153405 63.56103516 59.49421692 C59.29170174 57.5655188 54.99930619 55.70040736 50.69140625 53.859375 C27.14922577 43.75261498 27.14922577 43.75261498 18 36 C17.19304688 35.319375 16.38609375 34.63875 15.5546875 33.9375 C7.67572375 26.67282833 -0.68668292 15.60270327 -3 5 C-1.6875 2 -1.6875 2 0 0 Z " fill="#8A51B9" transform="translate(587,457)"/>
<path d="M0 0 C5.57047972 1.62642572 10.51897835 4.16075822 15.65625 6.8046875 C16.59440552 7.28390656 17.53256104 7.76312561 18.49914551 8.25686646 C20.49054401 9.27532914 22.48087694 10.29587763 24.47021484 11.31835938 C27.43186329 12.83999278 30.39723357 14.35415097 33.36328125 15.8671875 C43.32874159 20.96374884 53.24695073 26.14570397 63.09765625 31.4609375 C64.00628418 31.94650116 64.91491211 32.43206482 65.85107422 32.93234253 C72.47844405 36.53772506 77.87677861 40.40240626 83 46 C83.64710938 46.65355469 84.29421875 47.30710937 84.9609375 47.98046875 C89.7648033 53.05797247 94.67808509 59.49976097 95.19140625 66.67578125 C95 69 95 69 94 71 C93.34 71 92.68 71 92 71 C91.52691406 69.96101563 91.05382812 68.92203125 90.56640625 67.8515625 C80.58922581 46.54934873 65.21908917 38.401526 45 28.1875 C41.66558018 26.49562434 38.33264513 24.80083708 35 23.10546875 C34.17870605 22.68804413 33.35741211 22.27061951 32.51123047 21.84054565 C26.54894343 18.8045609 20.61029139 15.72559478 14.6875 12.61328125 C13.91728516 12.20925583 13.14707031 11.80523041 12.35351562 11.38896179 C7.84856726 9.01335194 3.40781305 6.55145123 -1 4 C-0.67 2.68 -0.34 1.36 0 0 Z " fill="#C592E6" transform="translate(687,353)"/>
<path d="M0 0 C1.52659913 2.2898987 2.59067846 4.17886384 3.6640625 6.66015625 C7.53100312 15.38165889 11.42772901 22.94998043 18 30 C18.93779297 31.05574219 18.93779297 31.05574219 19.89453125 32.1328125 C28.53258886 41.3866176 39.86253083 46.65446807 51.05859375 52.1796875 C51.72173584 52.50694824 52.38487793 52.83420898 53.06811523 53.17138672 C57.38102987 55.0212581 61.58906438 55.26040232 66.25 55.5625 C67.51328125 55.64628906 68.7765625 55.73007812 70.078125 55.81640625 C71.52445313 55.90728516 71.52445313 55.90728516 73 56 C73 56.33 73 56.66 73 57 C68.545 57.495 68.545 57.495 64 58 C69.445 60.475 69.445 60.475 75 63 C74.01 64.32 73.02 65.64 72 67 C68.2793814 65.95059475 65.07998076 64.54728019 61.75 62.625 C57.79603027 60.35991181 53.80354758 58.66713038 49.5546875 57.0390625 C46.03813457 55.60878256 42.69185907 53.89627066 39.32421875 52.1484375 C36.92554816 50.96321203 34.49527285 49.96277784 32 49 C32 48.34 32 47.68 32 47 C31.27554688 46.92007813 30.55109375 46.84015625 29.8046875 46.7578125 C24.45959091 45.3135942 20.91024488 40.75014037 17 37 C16.37738281 36.45214844 15.75476563 35.90429688 15.11328125 35.33984375 C11.10535819 31.68693485 8.18337569 27.52433901 5.25 23 C4.87286865 22.41839111 4.4957373 21.83678223 4.10717773 21.23754883 C-2.12616144 11.31523282 -2.12616144 11.31523282 -1.85546875 6.34765625 C-1.63503906 5.59355469 -1.41460938 4.83945312 -1.1875 4.0625 C-0.97480469 3.29035156 -0.76210938 2.51820313 -0.54296875 1.72265625 C-0.27419922 0.86994141 -0.27419922 0.86994141 0 0 Z " fill="#702A9D" transform="translate(584,305)"/>
<path d="M0 0 C4.00243694 0.67381093 7.57234246 1.87510728 11.35546875 3.3359375 C11.9667865 3.57134247 12.57810425 3.80674744 13.20794678 4.04928589 C15.20300852 4.81977538 17.19537583 5.59694974 19.1875 6.375 C20.20688156 6.7708429 20.20688156 6.7708429 21.24685669 7.17468262 C34.95298753 12.49983205 48.50334618 18.16379716 62 24 C61.505 25.485 61.505 25.485 61 27 C52.42363485 26.70426327 45.73639965 23.51421902 38 20 C36.00369679 19.15784922 34.00385684 18.3240159 32 17.5 C26.38160791 15.17281078 20.80161827 12.76070497 15.2265625 10.33203125 C12.18440595 9.07612885 9.13468845 7.99912275 6 7 C6.86826491 15.23319432 7.78574441 23.05092949 10.390625 30.9453125 C11.22072524 33.74424024 11.43291619 36.11389204 11 39 C10.01 39.66 9.02 40.32 8 41 C1.96135098 28.21605155 -0.89633607 14.09239495 0 0 Z " fill="#C089E0" transform="translate(576,421)"/>
<path d="M0 0 C2.41015625 0.65625 2.41015625 0.65625 5 2 C5.93359375 4.46875 5.93359375 4.46875 6.4375 7.5 C8.97963332 19.35855486 15.81854087 27.77708805 25.859375 34.29296875 C32.32319242 38.35166972 39.11117972 41.49896248 46.0625 44.625 C48.47140641 45.71840433 50.87822724 46.81630328 53.28515625 47.9140625 C54.42823242 48.43105713 55.57130859 48.94805176 56.74902344 49.48071289 C59.72682667 50.87233722 62.61800487 52.3677403 65.51953125 53.91015625 C69.11283015 55.73124116 71.54800661 56.56965592 75.625 55.8125 C76.46289062 55.67457031 77.30078125 55.53664063 78.1640625 55.39453125 C78.76992188 55.26433594 79.37578125 55.13414062 80 55 C73.56521739 60.2173913 73.56521739 60.2173913 70 62 C67.28800496 60.85764471 64.69157998 59.64837351 62.0625 58.3359375 C60.87043945 57.75230942 60.87043945 57.75230942 59.65429688 57.15689087 C57.09914509 55.90366971 54.54960181 54.63946793 52 53.375 C50.31155115 52.54485408 48.62275288 51.71541845 46.93359375 50.88671875 C42.96033819 48.93525511 38.99300811 46.97212472 35.02801514 45.00393677 C33.26971748 44.13351937 31.50751643 43.27099554 29.74462891 42.40991211 C17.13548061 36.22413836 7.44558239 27.18404159 2 14 C1.5875 13.01 1.175 12.02 0.75 11 C-0.20031825 7.19872699 -0.13490421 3.91222214 0 0 Z " fill="#7831A6" transform="translate(642,287)"/>
<path d="M0 0 C17.97180646 4.34064817 34.07054073 12.23467205 50.58886719 20.33496094 C55.77088733 22.86440392 60.97982565 25.33644777 66.1875 27.8125 C72.91419548 31.02523279 79.63131936 34.25599343 86.3125 37.5625 C86.97080811 37.88516846 87.62911621 38.20783691 88.30737305 38.5402832 C90.90198998 39.83496092 92.93431466 40.93431466 95 43 C94.505 43.99 94.505 43.99 94 45 C88.59523204 44.50128515 84.48310524 43.0526725 79.68359375 40.4921875 C78.26707227 39.76079651 76.85023083 39.03002492 75.43310547 38.29980469 C74.70387878 37.9201355 73.9746521 37.54046631 73.22332764 37.14929199 C69.57878932 35.26534172 65.90156157 33.44849969 62.22265625 31.6328125 C61.48183304 31.26678925 60.74100983 30.90076599 59.97773743 30.52365112 C39.40394159 20.37825615 18.84667816 11.11796531 -3 4 C-2.01 2.68 -1.02 1.36 0 0 Z " fill="#D9A8F1" transform="translate(700,233)"/>
<path d="M0 0 C12.57029033 5.13270714 25.08036198 10.39541897 37.48721313 15.91152954 C39.33106487 16.73048598 41.17758836 17.54341867 43.02416992 18.35620117 C56.14575613 24.2271795 67.12419534 31.43251778 77.6875 41.1875 C78.35136719 41.79980469 79.01523437 42.41210938 79.69921875 43.04296875 C81 45 81 45 80.70703125 47.73828125 C80.47371094 48.48464844 80.24039063 49.23101562 80 50 C76.76833219 48.61799087 75.08484623 47.13195092 72.9375 44.375 C61.36224769 30.81751632 43.59433988 24.02540588 27.47583008 17.50048828 C22.44466937 15.46289506 17.53943625 13.34320254 12.71362305 10.85742188 C9.60658461 9.302796 6.3508666 8.14691907 3.1015625 6.9296875 C1 6 1 6 -1 4 C-0.625 1.875 -0.625 1.875 0 0 Z " fill="#C494E6" transform="translate(749,328)"/>
<path d="M0 0 C3.90625 1.953125 7.8125 3.90625 11.71875 5.859375 C12.42386719 6.21064453 13.12898437 6.56191406 13.85546875 6.92382812 C15.29976494 7.648607 16.73983123 8.3818698 18.17578125 9.12304688 C18.87058594 9.47947266 19.56539062 9.83589844 20.28125 10.203125 C20.90064453 10.52442383 21.52003906 10.84572266 22.15820312 11.17675781 C26.40721383 13.07597098 30.63757196 13.26354633 35.25 13.5625 C36.51328125 13.64628906 37.7765625 13.73007812 39.078125 13.81640625 C40.04234375 13.87699219 41.0065625 13.93757813 42 14 C42 14.33 42 14.66 42 15 C37.545 15.495 37.545 15.495 33 16 C36.63 17.65 40.26 19.3 44 21 C43.01 22.32 42.02 23.64 41 25 C37.2793814 23.95059475 34.07998076 22.54728019 30.75 20.625 C26.79603027 18.35991181 22.80354758 16.66713038 18.5546875 15.0390625 C15.03813457 13.60878256 11.69185907 11.89627066 8.32421875 10.1484375 C5.92554816 8.96321203 3.49527285 7.96277784 1 7 C1 6.34 1 5.68 1 5 C0.01 4.67 -0.98 4.34 -2 4 C-1.34 2.68 -0.68 1.36 0 0 Z " fill="#7332A3" transform="translate(615,347)"/>
<path d="M0 0 C3.79911118 0.71840092 7.34658827 1.72555405 11 3 C10.01 3.66 9.02 4.32 8 5 C7.01 4.67 6.02 4.34 5 4 C5.61558818 7.89738104 6.24411502 11.79256829 6.875 15.6875 C7.04902344 16.79029297 7.22304688 17.89308594 7.40234375 19.02929688 C7.57636719 20.09599609 7.75039063 21.16269531 7.9296875 22.26171875 C8.08679199 23.24100342 8.24389648 24.22028809 8.40576172 25.22924805 C8.99871733 27.99401932 9.93676279 30.38768448 11 33 C11.3125 36.1875 11.3125 36.1875 11 39 C10.01 39.66 9.02 40.32 8 41 C1.96135098 28.21605155 -0.89633607 14.09239495 0 0 Z " fill="#AF68D0" transform="translate(576,421)"/>
<path d="M0 0 C12.87291427 5.96795802 25.49628907 12.29308227 38 19 C37.505 20.485 37.505 20.485 37 22 C31.6652843 21.4417158 27.6696159 19.59808959 22.9765625 17.18359375 C22.23038666 16.80767593 21.48421082 16.43175812 20.71542358 16.04444885 C18.34806544 14.84963212 15.98653669 13.64377506 13.625 12.4375 C12.01469583 11.62230982 10.40402236 10.80784869 8.79296875 9.99414062 C4.85765402 8.00450808 0.92752683 6.00495903 -3 4 C-2.34 3.67 -1.68 3.34 -1 3 C-0.67 2.01 -0.34 1.02 0 0 Z " fill="#C18BE6" transform="translate(795,275)"/>
<path d="M0 0 C10.42346857 6.42025238 21.52331208 14.73414046 27 26 C26.70703125 29.33203125 26.70703125 29.33203125 26 32 C22.8036077 28.98358475 20.30039274 25.76080206 17.75 22.1875 C12.88607126 15.63315668 7.71247963 10.81933854 1 6.25 C0.01 5.5075 -0.98 4.765 -2 4 C-2 3.01 -2 2.02 -2 1 C-1.34 0.67 -0.68 0.34 0 0 Z " fill="#E0B5F2" transform="translate(811,220)"/>
<path d="M0 0 C4.25321225 1.50113374 6.08943332 4.58487042 8.375 8.25 C8.76349121 8.86609131 9.15198242 9.48218262 9.55224609 10.11694336 C19.45422774 26.25009767 19.45422774 26.25009767 18.6484375 32.90234375 C18.43445313 33.59457031 18.22046875 34.28679687 18 35 C17.01 35 16.02 35 15 35 C14.6596875 34.06800781 14.319375 33.13601563 13.96875 32.17578125 C10.94243181 24.13460341 7.45125024 16.98969514 2.734375 9.8046875 C1.13941554 7.22545126 -0.09908042 4.89295286 -1 2 C-0.67 1.34 -0.34 0.68 0 0 Z " fill="#A776D2" transform="translate(829,375)"/>
<path d="M0 0 C8.08065058 3.48817671 14.44106574 8.17091747 21 14 C21.82757812 14.72058594 22.65515625 15.44117188 23.5078125 16.18359375 C24.24773438 16.86550781 24.98765625 17.54742187 25.75 18.25 C26.40484375 18.85328125 27.0596875 19.4565625 27.734375 20.078125 C29 22 29 22 28.703125 24.734375 C28.47109375 25.48203125 28.2390625 26.2296875 28 27 C24.76833219 25.61799087 23.08484623 24.13195092 20.9375 21.375 C14.46129041 13.73390474 5.83509662 8.53753111 -3 4 C-2.01 2.68 -1.02 1.36 0 0 Z " fill="#B986DE" transform="translate(801,351)"/>
<path d="M0 0 C5.75363418 1.35101755 11.30554155 3.04242854 16.890625 4.9765625 C21.51873185 6.52321537 26.22005652 7.76928634 30.94140625 8.99609375 C30.94140625 10.31609375 30.94140625 11.63609375 30.94140625 12.99609375 C23.86014959 12.54003206 17.45327603 11.24064009 10.69140625 9.12109375 C9.83289063 8.86457031 8.974375 8.60804688 8.08984375 8.34375 C3.46280898 6.92716551 -0.79156106 5.32483381 -5.05859375 2.99609375 C-2.66835925 -0.0050633 -2.66835925 -0.0050633 0 0 Z " fill="#9467C7" transform="translate(687.05859375,526.00390625)"/>
<path d="M0 0 C4.83930943 0.74584339 8.44683906 2.70175645 12.6953125 5.0390625 C15.09164584 6.3344304 15.09164584 6.3344304 18 5 C18.66 4.67 19.32 4.34 20 4 C20.33 3.01 20.66 2.02 21 1 C22.00496852 4.01490557 22.10335303 6.04181692 22.0625 9.1875 C22.05347656 10.08855469 22.04445313 10.98960937 22.03515625 11.91796875 C22.02355469 12.60503906 22.01195312 13.29210937 22 14 C13.59806226 11.49415892 5.88058561 7.78974143 -2 4 C-1.34 2.68 -0.68 1.36 0 0 Z " fill="#9C6FCF" transform="translate(762,418)"/>
<path d="M0 0 C6.6 0.33 13.2 0.66 20 1 C20 1.33 20 1.66 20 2 C15.545 2.495 15.545 2.495 11 3 C14.63 4.65 18.26 6.3 22 8 C21.01 9.32 20.02 10.64 19 12 C14.27097827 10.66617336 10.34725575 8.60355296 6.1484375 6.12109375 C4.08577194 5.04475736 2.27142349 4.45736808 0 4 C0 2.68 0 1.36 0 0 Z " fill="#8340B1" transform="translate(637,360)"/>
<path d="M0 0 C5.06040549 0.63888887 9.28011534 2.86279277 13.8125 5.0625 C14.60076172 5.43955078 15.38902344 5.81660156 16.20117188 6.20507812 C18.13652473 7.13170161 20.06859549 8.06517467 22 9 C22 10.65 22 12.3 22 14 C16.6776703 12.36368504 11.69018424 10.16119959 6.625 7.875 C5.79355469 7.50246094 4.96210937 7.12992188 4.10546875 6.74609375 C2.06915745 5.83326454 0.03405461 4.91784402 -2 4 C-2 3.34 -2 2.68 -2 2 C-1.34 2 -0.68 2 0 2 C0 1.34 0 0.68 0 0 Z " fill="#DEB0F1" transform="translate(724,242)"/>
<path d="M0 0 C5.18029908 0.70114429 10.30351936 1.58079647 15.4375 2.5625 C16.53481445 2.77036133 16.53481445 2.77036133 17.65429688 2.98242188 C19.43646318 3.3202181 21.21827002 3.65990988 23 4 C21.06991509 6.77449706 19.73614917 7.06112923 16.375 7.83984375 C11.56323681 8.27937981 7.53151107 7.06645905 3 5.5625 C2.22527344 5.31951172 1.45054687 5.07652344 0.65234375 4.82617188 C-1.23628562 4.23160337 -3.11883877 3.61779045 -5 3 C-5 2.34 -5 1.68 -5 1 C-3.35 1 -1.7 1 0 1 C0 0.67 0 0.34 0 0 Z " fill="#BE93E2" transform="translate(726,483)"/>
<path d="M0 0 C6.27 2.97 12.54 5.94 19 9 C18.67 9.99 18.34 10.98 18 12 C12.46640844 11.4943565 8.43969425 10.04383132 3.5625 7.4375 C2.60827148 6.9434668 2.60827148 6.9434668 1.63476562 6.43945312 C0.08505424 5.63546752 -1.45818322 4.81902334 -3 4 C-2.01 2.68 -1.02 1.36 0 0 Z " fill="#D2A4ED" transform="translate(776,266)"/>
<path d="M0 0 C5.91969002 1.75990784 11.41634992 4.39694605 17 7 C16.67 8.65 16.34 10.3 16 12 C11.53202662 10.60121198 7.36177921 8.86369228 3.125 6.875 C1.97257813 6.33617187 0.82015625 5.79734375 -0.3671875 5.2421875 C-1.67042969 4.62730469 -1.67042969 4.62730469 -3 4 C-2.34 3.67 -1.68 3.34 -1 3 C-0.67 2.01 -0.34 1.02 0 0 Z " fill="#B177DE" transform="translate(833,294)"/>
<path d="M0 0 C3.79911118 0.71840092 7.34658827 1.72555405 11 3 C10.01 3.66 9.02 4.32 8 5 C7.01 4.67 6.02 4.34 5 4 C5.061875 5.8253125 5.061875 5.8253125 5.125 7.6875 C5.13754508 11.21894127 4.59998217 13.80003566 3 17 C0.65709108 14.51565563 0.02017066 13.22268407 -0.29296875 9.765625 C-0.24076172 8.02539062 -0.24076172 8.02539062 -0.1875 6.25 C-0.16042969 5.07953125 -0.13335938 3.9090625 -0.10546875 2.703125 C-0.07066406 1.81109375 -0.03585937 0.9190625 0 0 Z " fill="#B978D6" transform="translate(576,421)"/>
<path d="M0 0 C1.44037669 0.93307421 2.87718985 1.87165077 4.3125 2.8125 C5.11300781 3.33457031 5.91351562 3.85664063 6.73828125 4.39453125 C8.7237402 5.80389849 10.3491852 7.22096657 12 9 C11.34 9 10.68 9 10 9 C10.7425 9.680625 10.7425 9.680625 11.5 10.375 C13 12 13 12 13 14 C13.66 14.33 14.32 14.66 15 15 C11.51005938 15 11.19811312 14.58329652 8.75 12.3125 C6.28998858 10.08852379 3.82320357 8.14923585 1.0625 6.3125 C-0.4534375 5.1678125 -0.4534375 5.1678125 -2 4 C-2 3.01 -2 2.02 -2 1 C-1.34 0.67 -0.68 0.34 0 0 Z " fill="#E3BDF3" transform="translate(811,220)"/>
<path d="M0 0 C1.258125 0.35707031 2.51625 0.71414062 3.8125 1.08203125 C7 2.1875 7 2.1875 9 4.1875 C8.01 5.6725 8.01 5.6725 7 7.1875 C5.22739369 6.73607225 3.4569632 6.27609477 1.6875 5.8125 C0.20830078 5.42964844 0.20830078 5.42964844 -1.30078125 5.0390625 C-5.14303774 3.82688896 -6.75836522 2.54995217 -9 -0.8125 C-5.80421108 -2.41039446 -3.34747444 -0.9706304 0 0 Z " fill="#E6C2F2" transform="translate(741,189.8125)"/>
<path d="M0 0 C3.10983241 3.85026869 5.79352209 7.72874295 6.25 12.75 C6 15 6 15 5 17 C4.34 17 3.68 17 3 17 C1.02 12.38 -0.96 7.76 -3 3 C-2.01 2.01 -1.02 1.02 0 0 Z " fill="#B182E0" transform="translate(776,407)"/>
<path d="M0 0 C4.05819183 0.65503282 7.53971282 1.94559121 11.3125 3.5625 C12.38113281 4.01753906 13.44976563 4.47257812 14.55078125 4.94140625 C15.76314453 5.46541016 15.76314453 5.46541016 17 6 C16.360625 6.12375 15.72125 6.2475 15.0625 6.375 C14.381875 6.58125 13.70125 6.7875 13 7 C12.67 7.66 12.34 8.32 12 9 C10.56068883 8.54738642 9.12361001 8.08767021 7.6875 7.625 C6.88699219 7.36976563 6.08648438 7.11453125 5.26171875 6.8515625 C3 6 3 6 0 4 C0 2.68 0 1.36 0 0 Z " fill="#CD9FE8" transform="translate(717,315)"/>
<path d="M0 0 C0 3.78526291 -1.37819608 6.60260321 -2.875 10 C-3.14441406 10.6290625 -3.41382813 11.258125 -3.69140625 11.90625 C-4.94924142 14.80233877 -6.24308777 17.36463166 -8 20 C-8.33 18.68 -8.66 17.36 -9 16 C-10.32 17.32 -11.64 18.64 -13 20 C-11.59569884 16.16945576 -9.81548751 12.87627843 -7.625 9.4375 C-6.74714844 8.04337891 -6.74714844 8.04337891 -5.8515625 6.62109375 C-4.08667407 4.12269683 -2.22845567 2.08610939 0 0 Z " fill="#9A3BAF" transform="translate(587,226)"/>
<path d="M0 0 C2.85749268 2.85749268 3.99035622 6.11732577 5 10 C4.6875 13 4.6875 13 4 15 C3.01 15 2.02 15 1 15 C-0.32 11.04 -1.64 7.08 -3 3 C-2.01 2.01 -1.02 1.02 0 0 Z " fill="#9B6BCA" transform="translate(843,395)"/>
<path d="M0 0 C1.27230469 0.20496094 1.27230469 0.20496094 2.5703125 0.4140625 C6.22529627 0.91101205 9.10223281 1.11698641 12.6953125 0.0390625 C6.26052989 5.2564538 6.26052989 5.2564538 2.6953125 7.0390625 C0.75 6.26171875 0.75 6.26171875 -1.4296875 5.1015625 C-2.15414062 4.72128906 -2.87859375 4.34101563 -3.625 3.94921875 C-4.17929687 3.64886719 -4.73359375 3.34851563 -5.3046875 3.0390625 C-3.56773368 0.82529782 -2.88194919 0.0488466 0 0 Z " fill="#7434A1" transform="translate(709.3046875,341.9609375)"/>
<path d="M0 0 C1.32 0 2.64 0 4 0 C4.19294408 4.82360189 3.75747614 8.49646738 2 13 C-0.125 11.5625 -0.125 11.5625 -2 9 C-1.75232831 5.87179891 -0.94396421 2.98496791 0 0 Z " fill="#B786E0" transform="translate(799,450)"/>
<path d="M0 0 C3.95820859 0.56545837 6.6659053 1.80902348 10 4 C9.67 4.99 9.34 5.98 9 7 C5.04179141 6.43454163 2.3340947 5.19097652 -1 3 C-0.67 2.01 -0.34 1.02 0 0 Z " fill="#CD9DEC" transform="translate(734,378)"/>
<path d="M0 0 C2.46921528 2.99833285 3.05635938 4.40259059 2.6875 8.3125 C2.460625 9.199375 2.23375 10.08625 2 11 C-0.5999298 8.48972295 -2.99091227 6.0136316 -5 3 C-5 2.34 -5 1.68 -5 1 C-3 0 -3 0 0 0 Z " fill="#CF9BEA" transform="translate(835,241)"/>
<path d="M0 0 C3.3063908 0.55106513 6.19982126 1.09987871 9 3 C9.75 5.125 9.75 5.125 10 7 C3.375 6.25 3.375 6.25 0 4 C0 2.68 0 1.36 0 0 Z " fill="#CDA0EC" transform="translate(758,333)"/>
<path d="M0 0 C2.22640104 3.33960156 3.16130925 6.08610984 4 10 C3.01 11.485 3.01 11.485 2 13 C1.34 13 0.68 13 0 13 C-1.44977894 10.65887549 -2.04314411 9.4203071 -1.7578125 6.640625 C-1.54898438 5.85171875 -1.34015625 5.0628125 -1.125 4.25 C-0.92132812 3.45078125 -0.71765625 2.6515625 -0.5078125 1.828125 C-0.34023438 1.22484375 -0.17265625 0.6215625 0 0 Z " fill="#7C2AA6" transform="translate(584,305)"/>
<path d="M0 0 C8.71428571 1.85714286 8.71428571 1.85714286 11 5 C10.67 5.66 10.34 6.32 10 7 C6.06380262 6.43768609 3.20807554 5.38314183 0 3 C0 2.01 0 1.02 0 0 Z " fill="#CB9BE9" transform="translate(706,364)"/>
<path d="M0 0 C7.37297297 2.34594595 7.37297297 2.34594595 10 4 C10.33 4.99 10.66 5.98 11 7 C9.1875 7.625 9.1875 7.625 7 8 C4.26077169 6.17384779 2.20035956 4.42798296 0 2 C0 1.34 0 0.68 0 0 Z " fill="#D0A1EA" transform="translate(739,324)"/>
<path d="M0 0 C0.66 0 1.32 0 2 0 C2 4.62 2 9.24 2 14 C2.99 13.67 3.98 13.34 5 13 C5 14.98 5 16.96 5 19 C4.67 18.01 4.34 17.02 4 16 C2.35 15.67 0.7 15.34 -1 15 C-1 13.02 -1 11.04 -1 9 C-0.34 9 0.32 9 1 9 C0.67 6.03 0.34 3.06 0 0 Z " fill="#A34AC0" transform="translate(575,259)"/>
<path d="M0 0 C2.4750171 1.11431765 4.67883419 2.58150978 7 4 C6.01 4.495 6.01 4.495 5 5 C4.67 5.99 4.34 6.98 4 8 C1 6.1875 1 6.1875 -2 4 C-2 3.01 -2 2.02 -2 1 C-1.34 0.67 -0.68 0.34 0 0 Z " fill="#DCB6EC" transform="translate(811,220)"/>
<path d="M0 0 C5.43293781 -0.12634739 9.41201726 -0.05865516 14 3 C11.5 4.25 11.5 4.25 8 5 C5.12543987 4.00060096 2.58833406 2.58978894 0 1 C0 0.67 0 0.34 0 0 Z " fill="#E7C6F4" transform="translate(775,207)"/>
<path d="M0 0 C2.97 0 5.94 0 9 0 C5.59747962 3.40252038 4.44033259 3.58478859 -0.05859375 4.015625 C-2.47621286 3.9961673 -4.03275557 3.3934648 -6 2 C-4.02 2 -2.04 2 0 2 C0 1.34 0 0.68 0 0 Z " fill="#B68ED9" transform="translate(740,487)"/>
<path d="M0 0 C1.98 0.66 3.96 1.32 6 2 C6 3.32 6 4.64 6 6 C3.03 5.505 3.03 5.505 0 5 C-0.5625 3.0625 -0.5625 3.0625 -1 1 C-0.67 0.67 -0.34 0.34 0 0 Z " fill="#CB97E7" transform="translate(687,353)"/>
<path d="M0 0 C3.55780196 0.60990891 6.6828589 1.5783681 10 3 C8 4 6 5 4 6 C1.875 5.0625 1.875 5.0625 0 4 C0 2.68 0 1.36 0 0 Z " fill="#CDA1DF" transform="translate(642,283)"/>
<path d="M0 0 C1.98 0.66 3.96 1.32 6 2 C5.01 3.32 4.02 4.64 3 6 C-2.75 4.25 -2.75 4.25 -5 2 C-3.35 2 -1.7 2 0 2 C0 1.34 0 0.68 0 0 Z " fill="#7336A1" transform="translate(653,366)"/>
<path d="M0 0 C3.55780196 0.60990891 6.6828589 1.5783681 10 3 C9.360625 3.12375 8.72125 3.2475 8.0625 3.375 C7.381875 3.58125 6.70125 3.7875 6 4 C5.67 4.66 5.34 5.32 5 6 C3.35 5.67 1.7 5.34 0 5 C0 3.35 0 1.7 0 0 Z " fill="#BA80DA" transform="translate(599,430)"/>
<path d="M0 0 C3.59905908 0.55550695 4.99909799 1.74887248 7.25 4.5625 C8.03117188 5.52349609 8.03117188 5.52349609 8.828125 6.50390625 C9.21484375 6.99761719 9.6015625 7.49132812 10 8 C9.01 8.33 8.02 8.66 7 9 C5.62437146 7.71034824 4.29233607 6.37310707 3 5 C3 4.34 3 3.68 3 3 C2.01 2.67 1.02 2.34 0 2 C0 1.34 0 0.68 0 0 Z " fill="#D8B1E9" transform="translate(821,229)"/>
<path d="M0 0 C1.65 0.33 3.3 0.66 5 1 C5 2.65 5 4.3 5 6 C2.69 5.34 0.38 4.68 -2 4 C-1.34 2.68 -0.68 1.36 0 0 Z " fill="#9162C9" transform="translate(762,418)"/>
<path d="M0 0 C-1.40844718 3.21524305 -3.10344786 5.32183868 -5.625 7.75 C-6.57246094 8.67039062 -6.57246094 8.67039062 -7.5390625 9.609375 C-8.02117188 10.06828125 -8.50328125 10.5271875 -9 11 C-9.66 10.67 -10.32 10.34 -11 10 C-2.81818182 0 -2.81818182 0 0 0 Z " fill="#221C6A" transform="translate(827,509)"/>
<path d="M0 0 C0 3.99904969 -1.72586967 5.80200422 -4 9 C-4.33 8.34 -4.66 7.68 -5 7 C-5.66 6.67 -6.32 6.34 -7 6 C-4.69 4.02 -2.38 2.04 0 0 Z " fill="#3B2266" transform="translate(825,519)"/>
<path d="M0 0 C0 3.23655184 -0.6550847 4.78752639 -2 7.6875 C-2.37125 8.49574219 -2.7425 9.30398437 -3.125 10.13671875 C-3.41375 10.75160156 -3.7025 11.36648437 -4 12 C-4.66 11.67 -5.32 11.34 -6 11 C-4.88059018 6.14922412 -3.8665284 3.222107 0 0 Z " fill="#AB4FC0" transform="translate(587,226)"/>
<path d="M0 0 C2.475 0.99 2.475 0.99 5 2 C4.67 3.32 4.34 4.64 4 6 C2.68 5.34 1.36 4.68 0 4 C0 2.68 0 1.36 0 0 Z " fill="#BF8BE7" transform="translate(771,404)"/>
<path d="M0 0 C2.1875 1.4375 2.1875 1.4375 4 3 C2.68 3.99 1.36 4.98 0 6 C-0.99 5.34 -1.98 4.68 -3 4 C-3 3.01 -3 2.02 -3 1 C-2.01 0.67 -1.02 0.34 0 0 Z " fill="#BE87E3" transform="translate(759,390)"/>
<path d="M0 0 C1.32 0 2.64 0 4 0 C4 2.31 4 4.62 4 7 C3.67 6.34 3.34 5.68 3 5 C1.68 5.33 0.36 5.66 -1 6 C-0.67 4.02 -0.34 2.04 0 0 Z " fill="#A06ED0" transform="translate(799,450)"/>
<path d="M0 0 C3.3 0.33 6.6 0.66 10 1 C9.67 1.99 9.34 2.98 9 4 C6.75 4.25 6.75 4.25 4 4 C1.6875 2 1.6875 2 0 0 Z " fill="#C691E5" transform="translate(610,437)"/>
<path d="M0 0 C3.45195767 1.4258086 5.1014256 3.09746334 7.25 6.125 C8.03117188 7.21167969 8.03117188 7.21167969 8.828125 8.3203125 C9.40820312 9.15175781 9.40820312 9.15175781 10 10 C9.01 10.33 8.02 10.66 7 11 C6.38125 9.6696875 6.38125 9.6696875 5.75 8.3125 C4.09872712 5.18687634 2.28668741 2.68094386 0 0 Z " fill="#925BB9" transform="translate(820,233)"/>
<path d="M0 0 C1.98 0.66 3.96 1.32 6 2 C5.01 3.32 4.02 4.64 3 6 C1.68 5.34 0.36 4.68 -1 4 C-0.34 4 0.32 4 1 4 C0.67 2.68 0.34 1.36 0 0 Z " fill="#B888DE" transform="translate(688,467)"/>
<path d="M0 0 C2.31 0.66 4.62 1.32 7 2 C6.01 2.99 5.02 3.98 4 5 C2.68 4.34 1.36 3.68 0 3 C0 2.01 0 1.02 0 0 Z " fill="#D1A0EF" transform="translate(706,364)"/>
<path d="M0 0 C2.97 0.33 5.94 0.66 9 1 C5.23312136 2.88343932 3.97041037 3.22057835 0 3 C0 2.01 0 1.02 0 0 Z " fill="#E4BEEF" transform="translate(700,180)"/>
<path d="M0 0 C2.97 0.495 2.97 0.495 6 1 C6 1.99 6 2.98 6 4 C4.35 4 2.7 4 1 4 C0.67 2.68 0.34 1.36 0 0 Z " fill="#C585E4" transform="translate(603,433)"/>
<path d="M0 0 C2.64 0.99 5.28 1.98 8 3 C7.34 3.66 6.68 4.32 6 5 C3.69 4.34 1.38 3.68 -1 3 C-0.67 2.01 -0.34 1.02 0 0 Z " fill="#DDB9EB" transform="translate(776,204)"/>
<path d="M0 0 C2.97 0.495 2.97 0.495 6 1 C5.67 1.99 5.34 2.98 5 4 C3.68 4 2.36 4 1 4 C0.67 2.68 0.34 1.36 0 0 Z " fill="#F2D7FB" transform="translate(721,185)"/>
</svg>
